<svg width="31" height="23" viewBox="0 0 31 23" fill="none" xmlns="http://www.w3.org/2000/svg">
<path fill-rule="evenodd" clip-rule="evenodd" d="M30.0337 20.4838C30.0337 20.8455 29.9356 21.2004 29.7499 21.5108C29.1827 22.4586 27.9546 22.7672 27.0067 22.2L23.7487 20.2504C23.1451 19.8893 22.7756 19.2376 22.7756 18.5342L22.7747 11.8346L15.0337 16.2694L7.29169 11.8346L7.29176 18.5342C7.29176 19.2376 6.92228 19.8893 6.31872 20.2504L3.06066 22.2C2.11282 22.7672 0.884668 22.4586 0.317491 21.5108C0.131772 21.2004 0.0336914 20.8455 0.0336914 20.4838V2.6767L0.0391771 2.52744L0.0336914 2.66357C0.0336914 1.559 0.929122 0.663574 2.03369 0.663574C2.40259 0.663574 2.76429 0.765601 3.07882 0.958372L15.0337 8.28555L26.9886 0.958372C27.3031 0.765601 27.6648 0.663574 28.0337 0.663574C29.1383 0.663574 30.0337 1.559 30.0337 2.66357V20.4838Z" fill="#9155FD"/>
<path opacity="0.077704" fill-rule="evenodd" clip-rule="evenodd" d="M0.0336914 7.68066L7.29176 11.8425V15.9225L0.0336914 7.68066Z" fill="black"/>
<path opacity="0.077704" fill-rule="evenodd" clip-rule="evenodd" d="M0.0336914 7.68066L7.29176 11.7365V14.229L0.0336914 7.68066Z" fill="black"/>
<path opacity="0.077704" fill-rule="evenodd" clip-rule="evenodd" d="M30.0337 7.68066L22.7756 11.8337V16.0457L30.0337 7.68066Z" fill="black"/>
<path opacity="0.077704" fill-rule="evenodd" clip-rule="evenodd" d="M30.0337 7.68066L22.7756 11.7329V14.3522L30.0337 7.68066Z" fill="black"/>
<path fill-rule="evenodd" clip-rule="evenodd" d="M3.07882 0.958372L15.0337 8.28555V16.2694L0.0336914 7.6785V2.66357C0.0336914 1.559 0.929122 0.663574 2.03369 0.663574C2.40259 0.663574 2.76429 0.765601 3.07882 0.958372Z" fill="white" fill-opacity="0.15"/>
<path fill-rule="evenodd" clip-rule="evenodd" d="M26.9886 0.958372L15.0337 8.28555V16.2694L30.0337 7.6785V2.66357C30.0337 1.559 29.1383 0.663574 28.0337 0.663574C27.6648 0.663574 27.3031 0.765601 26.9886 0.958372Z" fill="white" fill-opacity="0.35"/>
</svg>
